/* XPM */
static char *out[] = {
/* columns rows colors chars-per-pixel */
"24 24 134 2 ",
"   c None",
".  c #1B0C0E",
"X  c #221219",
"o  c #24151A",
"O  c #271A1B",
"+  c #3D1711",
"@  c #351E1B",
"#  c #301D1D",
"$  c #2F1E24",
"%  c #352125",
"&  c #352328",
"*  c #34232A",
"=  c #332928",
"-  c #312F37",
";  c #3A2B34",
":  c #392B39",
">  c #3A3231",
",  c #32373C",
"<  c #3E3938",
"1  c #4F241E",
"2  c #542116",
"3  c #572E1D",
"4  c #583327",
"5  c #5A3B25",
"6  c #5D302C",
"7  c #452731",
"8  c #4B3237",
"9  c #583734",
"0  c #662D23",
"q  c #7B4617",
"w  c #5C443B",
"e  c #6E4522",
"r  c #7B4C21",
"t  c #7D4D2C",
"y  c #7D463B",
"u  c #704B3E",
"i  c #7B4F3C",
"p  c #473F40",
"a  c #463E43",
"s  c #4D3D4B",
"d  c #5A3B4A",
"f  c #3D4548",
"g  c #4F4143",
"h  c #504348",
"j  c #404A51",
"k  c #4B575F",
"l  c #515056",
"z  c #6D4742",
"x  c #694840",
"c  c #774C42",
"v  c #7A4C45",
"b  c #7D544F",
"n  c #63435A",
"m  c #635755",
"M  c #665658",
"N  c #765756",
"B  c #7D5654",
"V  c #7D5A56",
"C  c #574560",
"Z  c #4A5A64",
"A  c #5A5963",
"S  c #565F6A",
"D  c #665666",
"F  c #6A5962",
"G  c #665A6B",
"H  c #7A5D66",
"J  c #775B77",
"K  c #51636B",
"L  c #5B686F",
"P  c #5C6670",
"I  c #5D6D76",
"U  c #596878",
"Y  c #7A6469",
"T  c #616978",
"R  c #7B6770",
"E  c #726877",
"W  c #6A737D",
"Q  c #6F777E",
"!  c #76707F",
"~  c #843835",
"^  c #87532A",
"/  c #884E3D",
"(  c #835435",
")  c #8F5641",
"_  c #8E5C46",
"`  c #815549",
"'  c #85554F",
"]  c #835F55",
"[  c #825F58",
"{  c #946C52",
"}  c #90685B",
"|  c #A3654D",
" . c #B36F43",
".. c #A57350",
"X. c #A4705B",
"o. c #A37459",
"O. c #8A6461",
"+. c #8D676D",
"@. c #926D61",
"#. c #966C69",
"$. c #9D6F68",
"%. c #B07C69",
"&. c #A37E7C",
"*. c #A87E7A",
"=. c #AB9261",
"-. c #A28279",
";. c #B1847D",
":. c #B58A7A",
">. c #B48C7A",
",. c #C59F5F",
"<. c #C0996F",
"1. c #CEA461",
"2. c #EDDB5F",
"3. c #5F6685",
"4. c #786F88",
"5. c #757580",
"6. c #7F7780",
"7. c #75778A",
"8. c #7A708A",
"9. c #8B8B9D",
"0. c #A98183",
"q. c #BFA7A9",
"w. c #B6A8B0",
"e. c #BEACB2",
"r. c #C69A81",
"t. c #C1948E",
"y. c #C8A495",
"u. c #E4B99B",
"i. c #C7A6A6",
"p. c #C6ADAE",
"a. c #FDF893",
"s. c #EBC8B8",
"d. c #9BA8C0",
"f. c #E8CDC0",
/* pixels */
"                                                ",
"                                                ",
"                                                ",
"                                                ",
"            R     c O.                          ",
"            q.    X.*.@.          e.w.          ",
"            y.     .}         V :.| z           ",
"          s.f.    ~ v     r./ 3 4               ",
"          u.>.0.+.7.9.Y -.o.  q O               ",
"          <.b B 8 T d.3.M N p.  @               ",
"          =.$.` # - k U h 1 6 #.0               ",
"          ,.H u = , Z K A     + 2               ",
"          ..' ^ 5 > P W l                       ",
"          &.y   e < S I j                       ",
"          i.t.  { 5.Q L f                       ",
"          ;.%.  F ! 6.m p a                     ",
"        ( _     9 E 4.s ; g                     ",
"        x ] a.  7 8.G : * w                     ",
"        t [ 2.  d D & o $                       ",
"        r i 1.  n C % . X                       ",
"          )     J                               ",
"                                                ",
"                                                ",
"                                                "
};
